<?xml version="1.0" standalone="no"?>
<!DOCTYPE svg PUBLIC "-//W3C//DTD SVG 20010904//EN"
 "http://www.w3.org/TR/2001/REC-SVG-20010904/DTD/svg10.dtd">
<svg version="1.0" xmlns="http://www.w3.org/2000/svg"
 width="1654.000000pt" height="1654.000000pt" viewBox="0 0 1654.000000 1654.000000"
 preserveAspectRatio="xMidYMid meet">
<metadata>
Created by potrace 1.11, written by Peter Selinger 2001-2013
</metadata>
<g transform="translate(0.000000,1654.000000) scale(0.100000,-0.100000)"
fill="#000000" stroke="none">
<path d="M7890 15964 c-25 -2 -112 -9 -195 -14 -2180 -152 -4234 -1277 -5571
-3052 -848 -1126 -1364 -2444 -1508 -3848 -54 -527 -47 -1213 19 -1750 403
-3276 2902 -5960 6145 -6599 513 -101 956 -143 1500 -144 443 0 785 25 1200
89 2415 371 4539 1905 5661 4089 498 969 771 1965 840 3064 16 250 6 930 -15
1156 -95 969 -331 1822 -740 2670 -645 1336 -1699 2488 -2976 3253 -1011 605
-2089 954 -3300 1068 -164 15 -936 28 -1060 18z m533 -4327 l-858 -857 -5 689
-5 688 -145 -32 c-292 -66 -559 -160 -837 -295 -446 -216 -788 -462 -1128
-811 -615 -631 -985 -1417 -1097 -2329 -21 -168 -18 -732 5 -900 64 -472 184
-872 382 -1275 518 -1051 1462 -1811 2600 -2094 630 -156 1298 -155 1925 5
1010 257 1888 911 2419 1799 302 505 483 1051 547 1648 22 203 22 582 0 784
-17 155 -50 370 -59 379 -3 3 -31 0 -64 -6 -92 -18 -346 -24 -462 -11 -358 39
-677 168 -956 386 -87 68 -237 217 -308 306 -175 217 -315 526 -368 811 -26
145 -36 388 -20 528 108 943 892 1648 1833 1650 1171 2 2048 -1077 1808 -2225
-47 -227 -165 -499 -297 -685 -141 -197 -393 -427 -584 -532 -65 -35 -78 -47
-74 -63 14 -55 56 -315 71 -430 21 -178 30 -632 15 -821 -89 -1120 -557 -2125
-1347 -2894 -756 -735 -1735 -1176 -2798 -1261 -189 -15 -644 -7 -826 15
-1769 212 -3209 1384 -3765 3062 -140 422 -211 835 -222 1294 -8 334 14 611
73 920 227 1200 908 2236 1909 2905 206 137 320 203 530 307 364 179 775 314
1178 388 l67 12 0 762 0 761 860 -860 860 -860 -857 -858z"/>
<path d="M11595 12154 c-264 -46 -506 -174 -701 -368 -200 -201 -323 -439
-369 -715 -25 -150 -17 -387 19 -529 122 -483 486 -846 971 -969 102 -26 124
-28 310 -28 186 0 208 2 310 28 486 123 849 486 972 972 26 102 28 124 28 310
0 185 -2 208 -27 308 -132 518 -541 902 -1057 991 -116 20 -344 20 -456 0z"/>
</g>
</svg>
